<svg width="160" height="160" viewBox="0 0 160 160" fill="none" xmlns="http://www.w3.org/2000/svg">
<path d="M121.24 78.2555C117.74 71.6999 109.585 69.2221 103.029 72.7221C98.896 74.9221 96.396 78.9666 95.9737 83.311C94.8848 92.2332 89.6182 100.489 81.096 105.044C67.1848 112.467 49.8849 107.211 42.4626 93.2999C35.0404 79.3888 40.3071 62.0999 54.2071 54.6666C62.7182 50.1221 72.5182 50.3443 80.5182 54.3999C80.6626 54.4666 80.8182 54.5332 80.9626 54.611C81.0182 54.6443 81.0737 54.6666 81.1182 54.6888C84.8404 56.4666 89.3182 56.5221 93.2293 54.4332C99.7737 50.9443 102.24 42.7999 98.7515 36.2666C97.3848 33.6999 95.296 31.7666 92.8848 30.5666V30.5443C77.2848 22.5777 58.1848 22.0999 41.5515 30.9777C14.5515 45.3888 4.35152 78.9555 18.7626 105.955C33.1737 132.944 66.7404 143.155 93.7404 128.744C109.974 120.078 120.107 104.467 122.496 87.5332C123.174 84.4999 122.829 81.2221 121.252 78.2666L121.24 78.2555Z" fill="#5964FF"/>
<path d="M120.283 29.1112C113.972 32.4779 110.172 38.7223 109.616 45.3668C108.883 52.2335 104.894 58.6112 98.3605 62.1001C92.3271 65.3223 85.4494 65.3668 79.6382 62.8334C73.6271 58.8779 65.6938 58.2446 58.9049 61.8668C49.016 67.1446 45.2716 79.4446 50.5494 89.3446C55.8271 99.2335 68.1271 102.967 78.0271 97.689C84.3938 94.289 88.2049 87.9557 88.6938 81.2446C89.5494 74.5668 93.5049 68.389 99.9049 64.9779C106.449 61.489 113.983 61.7224 120.094 64.9335L120.149 64.8668C125.949 68.0112 133.149 68.2779 139.405 64.9446C149.294 59.6668 153.038 47.3668 147.76 37.4779C142.483 27.5779 130.172 23.8446 120.283 29.1223V29.1112Z" fill="#5964FF"/>
</svg>
